<svg viewBox="0 0 64 64" fill="none" xmlns="http://www.w3.org/2000/svg">
  <path d="M10 18c-4-6-2-14 4-14s8 6 6 12" stroke="#4F6BED" stroke-width="3" stroke-linecap="round"/>
  <path d="M54 18c4-6 2-14-4-14s-8 6-6 12" stroke="#4F6BED" stroke-width="3" stroke-linecap="round"/>
  <circle cx="12" cy="6" r="2.5" fill="#4F6BED"/>
  <circle cx="52" cy="6" r="2.5" fill="#4F6BED"/>
  <ellipse cx="32" cy="36" rx="20" ry="16" fill="#4F6BED" opacity="0.15"/>
  <ellipse cx="32" cy="36" rx="20" ry="16" stroke="#4F6BED" stroke-width="2.5"/>
  <circle cx="25" cy="30" r="3" fill="#4F6BED"/>
  <circle cx="39" cy="30" r="3" fill="#4F6BED"/>
  <circle cx="25.8" cy="29.2" r="1" fill="white"/>
  <circle cx="39.8" cy="29.2" r="1" fill="white"/>
  <path d="M28 39c2 2 6 2 8 0" stroke="#4F6BED" stroke-width="2" stroke-linecap="round"/>
  <path d="M14 32l-6 8" stroke="#4F6BED" stroke-width="2.5" stroke-linecap="round"/>
  <path d="M13 38l-8 6" stroke="#4F6BED" stroke-width="2.5" stroke-linecap="round"/>
  <path d="M14 44l-6 8" stroke="#4F6BED" stroke-width="2.5" stroke-linecap="round"/>
  <path d="M50 32l6 8" stroke="#4F6BED" stroke-width="2.5" stroke-linecap="round"/>
  <path d="M51 38l8 6" stroke="#4F6BED" stroke-width="2.5" stroke-linecap="round"/>
  <path d="M50 44l6 8" stroke="#4F6BED" stroke-width="2.5" stroke-linecap="round"/>
</svg>
