<svg xmlns="http://www.w3.org/2000/svg" viewBox="0 0 512 512" width="100%" height="100%">
  <rect width="512" height="512" rx="115" fill="#EBF4FF" />
  
  <ellipse cx="256" cy="450" rx="160" ry="20" fill="#BEE3F8" />

  <circle cx="100" cy="90" r="14" fill="#FFFFFF" opacity="0.6"/>
  <circle cx="130" cy="50" r="8" fill="#FFFFFF" opacity="0.5"/>
  <circle cx="430" cy="130" r="18" fill="#FFFFFF" opacity="0.6"/>
  <circle cx="460" cy="80" r="10" fill="#FFFFFF" opacity="0.5"/>

  <path d="M 150 340 Q 80 370 70 430" stroke="#2B6CB0" stroke-width="24" fill="none" stroke-linecap="round"/>
  <path d="M 125 290 Q 50 310 40 370" stroke="#3182CE" stroke-width="24" fill="none" stroke-linecap="round"/>
  <path d="M 135 240 Q 50 230 45 290" stroke="#4299E1" stroke-width="24" fill="none" stroke-linecap="round"/>

  <path d="M 362 340 Q 432 370 442 430" stroke="#2B6CB0" stroke-width="24" fill="none" stroke-linecap="round"/>
  <path d="M 387 290 Q 462 310 472 370" stroke="#3182CE" stroke-width="24" fill="none" stroke-linecap="round"/>
  <path d="M 377 240 Q 462 230 467 290" stroke="#4299E1" stroke-width="24" fill="none" stroke-linecap="round"/>

  <path d="M 150 250 Q 80 170 110 120" stroke="#2B6CB0" stroke-width="26" fill="none" stroke-linecap="round" />
  <path d="M 362 250 Q 432 170 402 120" stroke="#2B6CB0" stroke-width="26" fill="none" stroke-linecap="round" />

  <path d="M 110 120 L 155 85 A 55 55 0 1 0 155 155 Z" fill="#3182CE" />
  <path d="M 402 120 L 357 85 A 55 55 0 1 1 357 155 Z" fill="#3182CE" />

  <path d="M 216 210 L 186 110" stroke="#2B6CB0" stroke-width="20" stroke-linecap="round" />
  <path d="M 296 210 L 326 110" stroke="#2B6CB0" stroke-width="20" stroke-linecap="round" />

  <ellipse cx="256" cy="290" rx="150" ry="105" fill="#4299E1" />
  <ellipse cx="256" cy="330" rx="110" ry="50" fill="#63B3ED" />

  <circle cx="186" cy="110" r="36" fill="#4299E1" />
  <circle cx="186" cy="110" r="26" fill="#FFFFFF" />
  <circle cx="194" cy="114" r="14" fill="#2D3748" />
  <circle cx="188" cy="108" r="5" fill="#FFFFFF" />
  <circle cx="198" cy="120" r="2" fill="#FFFFFF" />

  <circle cx="326" cy="110" r="36" fill="#4299E1" />
  <circle cx="326" cy="110" r="26" fill="#FFFFFF" />
  <circle cx="318" cy="114" r="14" fill="#2D3748" />
  <circle cx="312" cy="108" r="5" fill="#FFFFFF" />
  <circle cx="322" cy="120" r="2" fill="#FFFFFF" />

  <ellipse cx="196" cy="300" rx="18" ry="12" fill="#2B6CB0" opacity="0.25" />
  <ellipse cx="316" cy="300" rx="18" ry="12" fill="#2B6CB0" opacity="0.25" />

  <path d="M 236 295 Q 256 315 276 295" stroke="#2D3748" stroke-width="8" stroke-linecap="round" fill="none" />
</svg>