<svg xmlns="http://www.w3.org/2000/svg" viewBox="0 0 512 512" width="512" height="512" fill="none">
  <!-- Background -->
  <rect width="512" height="512" rx="112" fill="#0f172a" />
  <!-- bell / dome -->
  <path
    d="M256 48C144 48 80 144 80 224c0 48 32 80 176 80s176-32 176-80C432 144 368 48 256 48Z"
    fill="#3b82f6"
    opacity="0.2"
  />
  <path
    d="M256 48C144 48 80 144 80 224c0 48 32 80 176 80s176-32 176-80C432 144 368 48 256 48Z"
    stroke="#60a5fa"
    stroke-width="16"
    stroke-linecap="round"
  />
  <!-- eyes -->
  <circle cx="200" cy="176" r="24" fill="#e0f2fe" />
  <circle cx="312" cy="176" r="24" fill="#e0f2fe" />
  <circle cx="206" cy="170" r="8" fill="white" />
  <circle cx="318" cy="170" r="8" fill="white" />
  <!-- smile -->
  <path
    d="M224 232c16 16 48 16 64 0"
    stroke="#e0f2fe"
    stroke-width="14"
    stroke-linecap="round"
  />
  <!-- tentacles -->
  <path d="M144 304c-16 48-8 112 8 144" stroke="#60a5fa" stroke-width="18" stroke-linecap="round" />
  <path d="M200 304c-8 56 0 112 0 160" stroke="#60a5fa" stroke-width="18" stroke-linecap="round" />
  <path d="M256 304c0 56 0 112 0 160" stroke="#60a5fa" stroke-width="18" stroke-linecap="round" />
  <path d="M312 304c8 56 0 112 0 160" stroke="#60a5fa" stroke-width="18" stroke-linecap="round" />
  <path d="M368 304c16 48 8 112-8 144" stroke="#60a5fa" stroke-width="18" stroke-linecap="round" />
</svg>
